<svg width="650" height="650" xmlns="http://www.w3.org/2000/svg">
 <!-- Created with Method Draw - http://github.com/duopixel/Method-Draw/ -->

 <g>
  <title>background</title>
  <rect fill="none" id="canvas_background" height="652" width="652" y="-1" x="-1"/>
  <g display="none" overflow="visible" y="0" x="0" height="100%" width="100%" id="canvasGrid">
   <rect fill="url(#gridpattern)" stroke-width="0" y="0" x="0" height="100%" width="100%"/>
  </g>
 </g>
 <g>
  <title>Layer 1</title>
  <g fill="#6D97AB" stroke="null" id="svg_22">
   <g stroke="null" transform="matrix(4.2746228219452185,0,0,4.132315057562378,147.62294901728455,177.89205969383147) " id="svg_5">
    <path fill="#3d6480" stroke="null" id="svg_6" d="m61.665061,-2.635824l-34,0c-0.552,0 -1,0.448 -1,1l0,3l-3,0c-0.552,0 -1,0.448 -1,1l0,46c0,0.552 0.448,1 1,1l34,0c0.552,0 1,-0.448 1,-1l0,-3l3,0c0.552,0 1,-0.448 1,-1l0,-46c0,-0.552 -0.448,-1 -1,-1zm-5,50l-32,0l0,-44l23,0l0,8c0,0.552 0.448,1 1,1l8,0l0,35zm-7,-42.586l5.586,5.586l-5.586,0l0,-5.586zm11,38.586l-2,0l0,-32c0,-0.022 -0.011,-0.041 -0.013,-0.063c-0.006,-0.088 -0.023,-0.173 -0.051,-0.257c-0.011,-0.032 -0.019,-0.063 -0.034,-0.094c-0.049,-0.106 -0.11,-0.207 -0.196,-0.293l-9,-9c-0.086,-0.086 -0.187,-0.147 -0.293,-0.196c-0.031,-0.014 -0.062,-0.022 -0.094,-0.033c-0.084,-0.029 -0.169,-0.046 -0.258,-0.051c-0.02,-0.002 -0.04,-0.013 -0.061,-0.013l-20,0l0,-2l32,0l0,44z"/>
   </g>
   <g stroke="null" transform="matrix(4.2746228219452185,0,0,4.132315057562378,147.62294901728455,177.89205969383147) " id="svg_7"/>
   <g stroke="null" transform="matrix(4.2746228219452185,0,0,4.132315057562378,147.62294901728455,177.89205969383147) " id="svg_8"/>
   <g stroke="null" transform="matrix(4.2746228219452185,0,0,4.132315057562378,147.62294901728455,177.89205969383147) " id="svg_9"/>
   <g stroke="null" transform="matrix(4.2746228219452185,0,0,4.132315057562378,147.62294901728455,177.89205969383147) " id="svg_10"/>
   <g stroke="null" transform="matrix(4.2746228219452185,0,0,4.132315057562378,147.62294901728455,177.89205969383147) " id="svg_11"/>
   <g stroke="null" transform="matrix(4.2746228219452185,0,0,4.132315057562378,147.62294901728455,177.89205969383147) " id="svg_12"/>
   <g stroke="null" transform="matrix(4.2746228219452185,0,0,4.132315057562378,147.62294901728455,177.89205969383147) " id="svg_13"/>
   <g stroke="null" transform="matrix(4.2746228219452185,0,0,4.132315057562378,147.62294901728455,177.89205969383147) " id="svg_14"/>
   <g stroke="null" transform="matrix(4.2746228219452185,0,0,4.132315057562378,147.62294901728455,177.89205969383147) " id="svg_15"/>
   <g stroke="null" transform="matrix(4.2746228219452185,0,0,4.132315057562378,147.62294901728455,177.89205969383147) " id="svg_16"/>
   <g stroke="null" transform="matrix(4.2746228219452185,0,0,4.132315057562378,147.62294901728455,177.89205969383147) " id="svg_17"/>
   <g stroke="null" transform="matrix(4.2746228219452185,0,0,4.132315057562378,147.62294901728455,177.89205969383147) " id="svg_18"/>
   <g stroke="null" transform="matrix(4.2746228219452185,0,0,4.132315057562378,147.62294901728455,177.89205969383147) " id="svg_19"/>
   <g stroke="null" transform="matrix(4.2746228219452185,0,0,4.132315057562378,147.62294901728455,177.89205969383147) " id="svg_20"/>
   <g stroke="null" transform="matrix(4.2746228219452185,0,0,4.132315057562378,147.62294901728455,177.89205969383147) " id="svg_21"/>
  </g>
  <g transform="rotate(90 290.9999694824219,316.5001525878907) " stroke="null" id="svg_44">
   <g stroke="null" fill="#fff" transform="matrix(1.0957342635743648,0,0,1.1243673095987217,-952.0871694478546,-1548.3633282653473) " id="svg_27">
    <path stroke="null" fill="#3d6480" id="svg_28" d="m1356.028699,1861.0891l-109.6,-109.6c29.4,-33.8 47.2,-77.9 47.2,-126.1c0,-106.1 -86.3,-192.3 -192.3,-192.3c-106.1,0 -192.3,86.3 -192.3,192.3s86.3,192.3 192.3,192.3c48.2,0 92.3,-17.8 126.1,-47.2l109.6,109.6c2.6,2.6 6.1,4 9.5,4s6.9,-1.3 9.5,-4c5.2,-5.2 5.2,-13.8 0,-19zm-420.1,-235.7c0,-91.2 74.2,-165.3 165.3,-165.3c91.2,0 165.3,74.2 165.3,165.3s-74.1,165.4 -165.3,165.4c-91.1,0 -165.3,-74.2 -165.3,-165.4z"/>
   </g>
   <g stroke="null" transform="matrix(1.0957342635743648,0,0,1.1243673095987217,-952.0871694478546,-1548.3633282653473) " id="svg_29"/>
   <g stroke="null" transform="matrix(1.0957342635743648,0,0,1.1243673095987217,-952.0871694478546,-1548.3633282653473) " id="svg_30"/>
   <g stroke="null" transform="matrix(1.0957342635743648,0,0,1.1243673095987217,-952.0871694478546,-1548.3633282653473) " id="svg_31"/>
   <g stroke="null" transform="matrix(1.0957342635743648,0,0,1.1243673095987217,-952.0871694478546,-1548.3633282653473) " id="svg_32"/>
   <g stroke="null" transform="matrix(1.0957342635743648,0,0,1.1243673095987217,-952.0871694478546,-1548.3633282653473) " id="svg_33"/>
   <g stroke="null" transform="matrix(1.0957342635743648,0,0,1.1243673095987217,-952.0871694478546,-1548.3633282653473) " id="svg_34"/>
   <g stroke="null" transform="matrix(1.0957342635743648,0,0,1.1243673095987217,-952.0871694478546,-1548.3633282653473) " id="svg_35"/>
   <g stroke="null" transform="matrix(1.0957342635743648,0,0,1.1243673095987217,-952.0871694478546,-1548.3633282653473) " id="svg_36"/>
   <g stroke="null" transform="matrix(1.0957342635743648,0,0,1.1243673095987217,-952.0871694478546,-1548.3633282653473) " id="svg_37"/>
   <g stroke="null" transform="matrix(1.0957342635743648,0,0,1.1243673095987217,-952.0871694478546,-1548.3633282653473) " id="svg_38"/>
   <g stroke="null" transform="matrix(1.0957342635743648,0,0,1.1243673095987217,-952.0871694478546,-1548.3633282653473) " id="svg_39"/>
   <g stroke="null" transform="matrix(1.0957342635743648,0,0,1.1243673095987217,-952.0871694478546,-1548.3633282653473) " id="svg_40"/>
   <g stroke="null" transform="matrix(1.0957342635743648,0,0,1.1243673095987217,-952.0871694478546,-1548.3633282653473) " id="svg_41"/>
   <g stroke="null" transform="matrix(1.0957342635743648,0,0,1.1243673095987217,-952.0871694478546,-1548.3633282653473) " id="svg_42"/>
   <g stroke="null" transform="matrix(1.0957342635743648,0,0,1.1243673095987217,-952.0871694478546,-1548.3633282653473) " id="svg_43"/>
  </g>
 </g>
</svg>